<!-- icon666.com - MILLIONS vector ICONS FREE --><svg id="Layer_1" enable-background="new 0 0 60 60" viewBox="0 0 60 60" xmlns="http://www.w3.org/2000/svg"><g><path d="m51.3 33.54c-1.89-1.98-4.55-3.23-7.5-3.23-5.71 0-10.35 4.65-10.35 10.36 0 2.83 1.14 5.39 2.99 7.26-3.34 2.38-5.8 3.8-5.92 3.87-.16.09-.33.13-.5.13s-.34-.04-.5-.13c-.88-.51-21.73-12.58-24.25-26.23-.79-4.25.29-8.2 3.19-11.75 2.95-3.62 7.07-5.71 11.29-5.73.03 0 .06-.01.09-.01 3.78 0 7.43 1.47 10.18 4.07 2.75-2.6 6.39-4.07 10.17-4.07.04 0 .07.01.1.01 4.22.02 8.34 2.11 11.29 5.73 4.65 5.67 4.53 12.46-.28 19.72z" fill="#3774b4"></path><path d="m43.8 32.3c-4.6 0-8.35 3.75-8.35 8.36 0 4.6 3.75 8.35 8.35 8.35 4.61 0 8.36-3.75 8.36-8.35 0-4.61-3.75-8.36-8.36-8.36zm3.32 9.37h-6.64c-.55 0-1-.45-1-1s.45-1 1-1h6.64c.55 0 1 .45 1 1s-.45 1-1 1z" fill="#44464a"></path></g></svg>