<svg width="110.834839" height="44.500000" viewBox="0 0 110.835 44.5" fill="none" xmlns="http://www.w3.org/2000/svg" xmlns:xlink="http://www.w3.org/1999/xlink">
	<desc>
			Created with Pixso.
	</desc>
	<defs>
		<linearGradient id="paint_linear_3_1350_0" x1="48.492043" y1="10.110596" x2="48.492043" y2="30.297001" gradientUnits="userSpaceOnUse">
			<stop stop-color="#FD6020"/>
			<stop offset="1.000000" stop-color="#E32900"/>
		</linearGradient>
		<linearGradient id="paint_linear_3_1351_0" x1="33.081787" y1="10.110596" x2="33.081787" y2="34.029350" gradientUnits="userSpaceOnUse">
			<stop stop-color="#F9A000"/>
			<stop offset="1.000000" stop-color="#E46E00"/>
		</linearGradient>
		<linearGradient id="paint_linear_3_1352_0" x1="15.070173" y1="34.356659" x2="28.465284" y2="9.734366" gradientUnits="userSpaceOnUse">
			<stop stop-color="#28356A"/>
			<stop offset="1.000000" stop-color="#0C7CFF"/>
		</linearGradient>
	</defs>
	<path id="Subtract" d="" fill="url(#paint_linear_3_1350_0)" fill-opacity="1.000000" fill-rule="nonzero"/>
	<path id="Vector" d="M35.6176 34.0293L30.546 34.0293L30.546 14.3315L24.0509 14.3315L24.0509 10.1106L42.1127 10.1106L42.1127 14.3315L35.6176 14.3315L35.6176 34.0293Z" fill="url(#paint_linear_3_1351_0)" fill-opacity="1.000000" fill-rule="evenodd"/>
	<path id="Vector" d="M22.7736 22.0374C22.7736 23.8806 22.5445 25.5603 22.0864 27.0762C21.6283 28.5815 20.9303 29.8794 19.9923 30.97C19.0652 32.0608 17.8873 32.9006 16.4584 33.4895C15.0297 34.0676 13.3391 34.3567 11.3868 34.3567C9.43445 34.3567 7.7439 34.0676 6.31506 33.4895C4.88629 32.9006 3.70288 32.0608 2.76489 30.97C1.83783 29.8794 1.1452 28.5759 0.687134 27.0598C0.229065 25.5439 0 23.8586 0 22.0046C0 19.5288 0.403564 17.3745 1.21063 15.5422C2.02869 13.699 3.28296 12.2703 4.97351 11.2559C6.66412 10.2415 8.81274 9.73438 11.4195 9.73438C14.0153 9.73438 16.1476 10.2415 17.8163 11.2559C19.496 12.2703 20.7394 13.699 21.5465 15.5422C22.3645 17.3855 22.7736 19.5505 22.7736 22.0374ZM5.31708 22.0374C5.31708 23.7061 5.52435 25.1458 5.93878 26.3564C6.36414 27.5562 7.02405 28.4832 7.9184 29.1377C8.81274 29.7812 9.96887 30.103 11.3868 30.103C12.8265 30.103 13.9935 29.7812 14.8879 29.1377C15.7822 28.4832 16.4312 27.5562 16.8347 26.3564C17.2492 25.1458 17.4564 23.7061 17.4564 22.0374C17.4564 19.5288 16.9874 17.5547 16.0494 16.115C15.1115 14.6753 13.5681 13.9553 11.4195 13.9553C9.99066 13.9553 8.82367 14.2825 7.9184 14.937C7.02405 15.5806 6.36414 16.5076 5.93878 17.7183C5.52435 18.918 5.31708 20.3577 5.31708 22.0374Z" fill="url(#paint_linear_3_1352_0)" fill-opacity="1.000000" fill-rule="nonzero"/>
	<path id="Subtract" d="" fill="#2B80F3" fill-opacity="1.000000" fill-rule="nonzero"/>
	<path id="App" d="M67.8892 34.1773L65.5497 27.5351L56.4043 27.5351L54.0648 34.1773L49.9256 34.1773L58.8256 10.1604L63.1775 10.1604L72.0611 34.1773L67.8892 34.1773ZM64.5354 24.1648L62.2613 17.6207C62.174 17.3371 62.0486 16.939 61.885 16.4264C61.7214 15.9029 61.5578 15.3739 61.3942 14.8395C61.2306 14.2941 61.0943 13.836 60.9852 13.4652C60.8761 13.9124 60.7398 14.4141 60.5762 14.9704C60.4235 15.5157 60.2708 16.0283 60.1181 16.5082C59.9763 16.9881 59.8672 17.359 59.7909 17.6207L57.5005 24.1648L64.5354 24.1648ZM82.1083 15.7229C84.257 15.7229 85.9802 16.5082 87.2782 18.0788C88.587 19.6494 89.2414 21.9835 89.2414 25.081C89.2414 27.1315 88.936 28.8602 88.3252 30.2672C87.7253 31.6633 86.8801 32.7213 85.7894 33.4411C84.7096 34.1501 83.4498 34.5045 82.0101 34.5045C81.094 34.5045 80.2978 34.3846 79.6215 34.1446C78.9453 33.9047 78.3672 33.5938 77.8873 33.2121C77.4074 32.8194 77.0039 32.3941 76.6767 31.936L76.4476 31.936C76.5022 32.3723 76.5513 32.8576 76.5949 33.392C76.6494 33.9156 76.6767 34.3955 76.6767 34.8317L76.6767 42.2102L72.8157 42.2102L72.8157 16.0665L75.9568 16.0665L76.4967 18.5696L76.6767 18.5696C77.0148 18.057 77.4238 17.5825 77.9037 17.1463C78.3945 16.71 78.9835 16.3664 79.6706 16.1156C80.3687 15.8538 81.1812 15.7229 82.1083 15.7229ZM81.0776 18.8641C80.0196 18.8641 79.1689 19.0768 78.5254 19.5022C77.8928 19.9166 77.4293 20.5438 77.1348 21.3836C76.8512 22.2234 76.6985 23.2759 76.6767 24.5411L76.6767 25.081C76.6767 26.4226 76.813 27.5623 77.0857 28.5003C77.3693 29.4274 77.8328 30.1363 78.4763 30.6272C79.1307 31.1071 80.0142 31.347 81.1267 31.347C82.0647 31.347 82.8391 31.0907 83.4498 30.5781C84.0715 30.0655 84.5351 29.3347 84.8405 28.3858C85.1459 27.4369 85.2986 26.3189 85.2986 25.0319C85.2986 23.0796 84.9495 21.5636 84.2515 20.4838C83.5644 19.404 82.5064 18.8641 81.0776 18.8641ZM100.974 15.7229C103.122 15.7229 104.846 16.5082 106.144 18.0788C107.452 19.6494 108.107 21.9835 108.107 25.081C108.107 27.1315 107.801 28.8602 107.191 30.2672C106.591 31.6633 105.745 32.7213 104.655 33.4411C103.575 34.1501 102.315 34.5045 100.876 34.5045C99.9594 34.5045 99.1631 34.3846 98.4869 34.1446C97.8107 33.9047 97.2326 33.5938 96.7527 33.2121C96.2728 32.8194 95.8693 32.3941 95.5421 31.936L95.313 31.936C95.3676 32.3723 95.4166 32.8576 95.4603 33.392C95.5148 33.9156 95.5421 34.3955 95.5421 34.8317L95.5421 42.2102L91.681 42.2102L91.681 16.0665L94.8222 16.0665L95.3621 18.5696L95.5421 18.5696C95.8802 18.057 96.2892 17.5825 96.7691 17.1463C97.2599 16.71 97.8489 16.3664 98.536 16.1156C99.234 15.8538 100.047 15.7229 100.974 15.7229ZM99.943 18.8641C98.885 18.8641 98.0343 19.0768 97.3908 19.5022C96.7582 19.9166 96.2946 20.5438 96.0002 21.3836C95.7166 22.2234 95.5639 23.2759 95.5421 24.5411L95.5421 25.081C95.5421 26.4226 95.6784 27.5623 95.9511 28.5003C96.2347 29.4274 96.6982 30.1363 97.3417 30.6272C97.9961 31.1071 98.8796 31.347 99.9921 31.347C100.93 31.347 101.704 31.0907 102.315 30.5781C102.937 30.0655 103.4 29.3347 103.706 28.3858C104.011 27.4369 104.164 26.3189 104.164 25.0319C104.164 23.0796 103.815 21.5636 103.117 20.4838C102.43 19.404 101.372 18.8641 99.943 18.8641Z" fill="#FFFFFF" fill-opacity="1.000000" fill-rule="evenodd"/>
</svg>
