<svg width="64.000000" height="64.084473" viewBox="0 0 64 64.0845" fill="none" xmlns="http://www.w3.org/2000/svg" xmlns:xlink="http://www.w3.org/1999/xlink">
	<desc>
			Created with Pixso.
	</desc>
	<defs/>
	<rect id="Icons" width="64.000000" height="64.000000" transform="translate(0.000000 0.084473)" fill="#FFFFFF" fill-opacity="0"/>
	<path id="Vector" d="M44.6319 33.0923L26.0081 45.37C25.8072 45.5015 25.5744 45.576 25.3344 45.5858C25.0945 45.5956 24.8563 45.5402 24.6454 45.4255C24.4335 45.313 24.2564 45.145 24.1331 44.9393C24.0098 44.7337 23.9449 44.4984 23.9456 44.2587L23.9456 19.7034C23.9456 19.2147 24.2144 18.7625 24.6454 18.5398C24.8563 18.4246 25.0947 18.3691 25.3348 18.3794C25.575 18.3896 25.8078 18.4651 26.0081 18.5978L44.6319 30.8755C44.8158 30.9962 44.9668 31.1608 45.0713 31.3542C45.1758 31.5477 45.2305 31.7641 45.2305 31.9839C45.2305 32.2038 45.1758 32.4202 45.0713 32.6136C44.9668 32.8071 44.8158 32.9716 44.6319 33.0923Z" fill="#E6E7EA" fill-opacity="1.000000" fill-rule="evenodd"/>
	<circle id="Ellipse 19" cx="32.000000" cy="32.000000" r="30.500000" stroke="#E6E7EA" stroke-opacity="1.000000" stroke-width="3.000000"/>
</svg>
