<svg width="22.761841" height="21.998047" viewBox="0 0 22.7618 21.998" fill="none" xmlns="http://www.w3.org/2000/svg" xmlns:xlink="http://www.w3.org/1999/xlink">
	<desc>
			Created with Pixso.
	</desc>
	<defs/>
	<path id="Vector" d="M19.8339 2.37939C16.1516 -0.991211 10.3944 -0.741699 6.96545 2.87939C5.4422 4.48535 4.57904 6.60571 4.54773 8.81885C4.51636 11.0322 5.31909 13.176 6.79626 14.8245L0.190186 20.958C0.130188 21.0139 0.0823364 21.0815 0.0496216 21.1567C0.0169067 21.2319 0 21.313 0 21.395C0 21.4771 0.0169067 21.5581 0.0496216 21.6333C0.0823364 21.7085 0.130188 21.7761 0.190186 21.8318C0.317627 21.957 0.48761 21.998 0.656738 21.998C0.825928 21.998 0.995117 21.957 1.12177 21.8318L7.68536 15.6985C9.34821 17.1221 11.4652 17.9043 13.6542 17.9038L13.9926 17.9038C16.405 17.821 18.649 16.7803 20.3422 15.0325C21.1512 14.1787 21.7814 13.1719 22.1959 12.0713C22.6103 10.9705 22.8005 9.7981 22.7554 8.6228C22.6704 6.25049 21.6121 4.00269 19.8339 2.37939ZM19.4106 14.1584C17.9824 15.6606 16.0217 16.5425 13.9501 16.614C11.8785 16.6992 9.85657 15.9666 8.32031 14.5742C5.14551 11.7029 4.97632 6.7915 7.89703 3.71143C9.42108 2.08813 11.5377 1.25586 13.6542 1.25586C15.5591 1.25586 17.464 1.92114 18.9873 3.29492C20.5114 4.71069 21.4005 6.58374 21.4855 8.66455C21.532 9.67334 21.3721 10.6809 21.0153 11.6257C20.6584 12.5706 20.1124 13.4324 19.4106 14.1584Z" fill="#FFFFFF" fill-opacity="1.000000" fill-rule="evenodd"/>
</svg>
